<svg fill="white" version="1.0" xmlns="http://www.w3.org/2000/svg"
 width="2233.000000pt" height="2264.000000pt" viewBox="0 0 2233.000000 2264.000000">

<g transform="translate(0.000000,2264.000000) scale(0.100000,-0.100000)" stroke="none">
<path d="M10670 22623 c-624 -33 -1075 -83 -1585 -174 -1910 -341 -3689 -1138
-5212 -2338 -703 -553 -1372 -1223 -1924 -1926 -716 -913 -1278 -1908 -1682
-2982 -78 -205 -177 -493 -177 -512 0 -8 238 -11 818 -11 l819 0 48 123 c130
333 310 722 478 1035 l82 152 1582 0 1582 0 -9 -27 c-4 -16 -24 -82 -45 -148
-92 -302 -285 -1062 -285 -1125 0 -7 269 -10 799 -10 l798 0 32 123 c89 337
197 694 314 1027 l54 155 1526 3 1527 2 0 -655 0 -655 775 0 775 0 0 655 0
655 1651 -2 1651 -3 69 -173 c118 -299 257 -709 359 -1059 l21 -73 799 0 c440
0 800 3 800 8 0 15 -100 395 -155 587 -44 155 -193 624 -222 703 -4 10 325 12
1638 10 l1644 -3 57 -105 c155 -282 332 -659 469 -1000 l79 -195 820 -3 c451
-1 820 0 820 2 0 29 -218 620 -315 856 -1290 3112 -3944 5521 -7218 6551 -962
302 -1934 474 -2992 529 -168 9 -920 11 -1065 3z m3025 -1855 c1220 -299 2455
-870 3470 -1602 470 -339 815 -634 1230 -1050 219 -220 313 -320 519 -553 l19
-23 -1435 0 -1436 0 -37 73 c-391 752 -941 1559 -1485 2177 -275 312 -670 708
-942 945 -43 37 -78 69 -78 71 0 5 12 2 175 -38z m-5477 -231 c-794 -771
-1488 -1737 -2019 -2809 l-93 -188 -1343 0 c-1336 0 -1344 0 -1330 20 81 116
644 693 897 920 883 793 1890 1417 3010 1865 256 103 582 217 810 285 96 28
186 55 200 60 14 5 27 9 30 9 3 0 -70 -72 -162 -162z m3672 -426 c722 -512
1396 -1192 1982 -2000 108 -147 378 -550 378 -563 0 -4 -560 -8 -1245 -8
l-1245 0 0 1331 c0 1061 3 1329 13 1323 6 -5 59 -42 117 -83z m-1680 -1246 l0
-1325 -1160 0 c-638 0 -1160 4 -1160 8 0 15 240 403 362 585 496 744 1095
1395 1733 1888 126 97 219 168 223 168 1 1 2 -595 2 -1324z"/>
<path d="M353 13161 c-198 -54 -328 -173 -348 -321 -14 -98 24 -220 447 -1435
461 -1327 529 -1517 568 -1595 121 -241 326 -350 660 -350 246 0 413 61 555
204 99 98 127 170 586 1460 203 572 371 1041 372 1042 2 2 162 -450 356 -1004
470 -1339 500 -1413 615 -1519 139 -128 258 -172 491 -180 292 -10 450 40 602
193 96 95 75 41 651 1699 426 1225 443 1278 462 1385 29 160 -48 289 -223 375
-93 46 -186 65 -320 65 -192 0 -300 -36 -410 -139 -111 -105 -104 -83 -487
-1416 -150 -522 -276 -953 -280 -958 -3 -4 -149 408 -324 915 -428 1240 -448
1291 -570 1405 -148 140 -262 182 -508 190 -96 4 -187 1 -237 -6 -239 -35
-417 -157 -513 -352 -73 -148 -106 -238 -444 -1226 -175 -512 -322 -929 -326
-925 -3 4 -139 470 -302 1035 -163 566 -305 1050 -316 1077 -60 152 -145 284
-210 325 -82 51 -153 67 -320 71 -130 4 -166 1 -227 -15z"/>
<path d="M8321 13165 c-139 -31 -273 -118 -328 -213 -39 -67 -43 -184 -10
-307 23 -86 798 -2326 914 -2640 73 -198 115 -276 192 -358 83 -88 203 -150
335 -172 103 -17 292 -20 386 -4 149 24 287 95 383 198 96 103 142 218 598
1503 194 549 354 996 356 994 2 -1 167 -468 367 -1037 451 -1281 480 -1355
570 -1456 94 -104 235 -178 386 -202 95 -16 294 -13 396 4 164 29 315 123 401
250 51 75 57 90 590 1620 409 1177 473 1373 473 1461 0 158 -141 299 -356 354
-147 38 -374 22 -489 -35 -74 -36 -166 -123 -202 -192 -49 -91 -84 -205 -388
-1263 -158 -547 -290 -998 -294 -1002 -3 -4 -150 410 -325 920 -402 1165 -448
1283 -551 1387 -147 150 -305 205 -584 205 -340 0 -564 -115 -685 -349 -70
-137 -105 -232 -447 -1228 -178 -519 -326 -940 -329 -935 -4 4 -130 435 -280
957 -299 1044 -340 1177 -393 1280 -108 213 -197 265 -472 271 -106 3 -169 -1
-214 -11z"/>
<path d="M16270 13164 c-210 -45 -360 -191 -360 -351 0 -35 7 -96 16 -136 16
-70 827 -2416 939 -2713 30 -81 69 -173 87 -203 52 -89 151 -182 238 -224 128
-63 180 -72 395 -71 174 0 197 2 272 25 103 32 178 77 266 159 121 112 149
182 623 1527 192 545 352 988 355 985 3 -4 160 -448 349 -987 432 -1236 496
-1400 583 -1501 44 -51 168 -137 234 -163 169 -66 512 -68 677 -4 71 28 160
90 220 153 66 69 101 139 183 364 109 301 857 2454 891 2566 29 95 35 132 36
210 1 114 -17 157 -97 233 -100 95 -257 147 -444 147 -198 0 -308 -38 -416
-143 -67 -65 -99 -122 -144 -252 -19 -55 -246 -840 -600 -2074 -10 -36 -18
-50 -23 -40 -4 8 -150 425 -325 928 -396 1145 -444 1266 -538 1368 -138 150
-312 213 -587 213 -218 0 -350 -33 -482 -119 -105 -68 -170 -144 -227 -265
-70 -147 -82 -181 -432 -1200 -175 -511 -321 -931 -323 -933 -5 -5 -7 1 -321
1097 -152 531 -292 1003 -310 1049 -37 90 -99 200 -141 250 -33 40 -132 87
-219 106 -88 18 -288 18 -375 -1z"/>
<path d="M30 8155 c0 -29 187 -580 270 -795 848 -2201 2383 -4096 4389 -5418
1648 -1086 3557 -1741 5531 -1897 693 -54 1487 -45 2180 25 2059 210 4036 966
5712 2187 741 539 1451 1200 2039 1898 838 997 1494 2120 1943 3327 62 167
226 659 226 679 0 5 -312 9 -813 9 l-814 0 -78 -207 c-125 -334 -325 -788
-441 -1000 l-45 -83 -1655 0 c-909 0 -1654 4 -1654 8 0 5 14 48 30 98 38 110
145 478 199 679 36 139 121 488 121 500 0 3 -354 4 -787 3 l-788 -3 -66 -240
c-85 -310 -172 -590 -263 -840 l-73 -200 -1716 -3 -1717 -2 0 645 0 645 -772
-2 -773 -3 -3 -642 -2 -643 -1565 0 -1564 0 -60 183 c-78 240 -180 598 -250
877 l-56 225 -792 3 c-436 1 -793 -1 -793 -5 0 -66 255 -1094 315 -1270 4 -10
-324 -13 -1614 -13 l-1617 0 -122 248 c-66 136 -146 306 -178 377 -57 133
-206 506 -240 605 l-19 55 -813 3 c-725 2 -812 0 -812 -13z m6050 -2992 c148
-336 434 -891 617 -1198 416 -697 833 -1242 1353 -1768 124 -125 223 -227 222
-227 -13 0 -328 100 -461 145 -1732 595 -3283 1660 -4442 3049 -62 76 -118
144 -122 152 -7 12 182 14 1375 14 l1384 0 74 -167z m4130 -1273 c0 -792 -2
-1440 -5 -1440 -3 0 -47 28 -98 62 -777 521 -1482 1291 -2064 2258 -97 160
-233 401 -287 508 l-26 52 1240 0 1240 0 0 -1440z m4146 1338 c-589 -962
-1316 -1774 -2146 -2399 -154 -116 -432 -309 -444 -309 -3 0 -6 632 -6 1405
l0 1405 1329 0 1330 0 -63 -102z m4743 85 c-57 -74 -224 -271 -323 -383 -171
-193 -662 -681 -858 -852 -1239 -1080 -2679 -1830 -4260 -2218 -112 -27 -207
-50 -211 -50 -4 0 38 39 95 87 437 369 876 808 1227 1229 516 617 985 1329
1339 2031 l87 173 1459 0 c1388 0 1458 -1 1445 -17z"/>
</g>
</svg>